<svg id="Component_2_1" data-name="Component 2 – 1" xmlns="http://www.w3.org/2000/svg" width="350" height="98.895" viewBox="0 0 350 98.895">
  <g id="Group_2" data-name="Group 2" transform="translate(128 5)">
    <g id="Path_2" data-name="Path 2" fill="none">
      <path d="M46.947,0A46.947,46.947,0,1,1,0,46.947,46.947,46.947,0,0,1,46.947,0Z" stroke="none"/>
      <path d="M 46.94736862182617 6.999992370605469 C 24.92031097412109 6.999992370605469 6.999992370605469 24.92031097412109 6.999992370605469 46.94736862182617 C 6.999992370605469 68.97441101074219 24.92031097412109 86.89472961425781 46.94736862182617 86.89472961425781 C 68.97441101074219 86.89472961425781 86.89472961425781 68.97441101074219 86.89472961425781 46.94736862182617 C 86.89472961425781 24.92031097412109 68.97441101074219 6.999992370605469 46.94736862182617 6.999992370605469 M 46.94736862182617 -7.62939453125e-06 C 72.87568664550781 -7.62939453125e-06 93.89472961425781 21.01905059814453 93.89472961425781 46.94736862182617 C 93.89472961425781 72.87568664550781 72.87568664550781 93.89472961425781 46.94736862182617 93.89472961425781 C 21.01905059814453 93.89472961425781 -7.62939453125e-06 72.87568664550781 -7.62939453125e-06 46.94736862182617 C -7.62939453125e-06 21.01905059814453 21.01905059814453 -7.62939453125e-06 46.94736862182617 -7.62939453125e-06 Z" stroke="none" fill="#4c9ff2"/>
    </g>
    <path id="Path_3" data-name="Path 3" d="M40.889,1.919,61.929,0V23.474H41.487L21.863,5.8Z" transform="translate(-19.09)" fill="#f3f3f9"/>
    <line id="Line_1" data-name="Line 1" y2="14.084" transform="translate(46.35 6.455)" fill="none" stroke="#4c9ff2" stroke-width="7"/>
    <path id="Path_1" data-name="Path 1" d="M-13.706-13.766,10.6,2.391A8.216,8.216,0,1,1,2.38,10.607Z" transform="translate(36.351 36.341)" fill="#8b8b8b"/>
  </g>
  <text id="ver" transform="translate(289 73)" fill="#8b8b8b" font-size="75" font-family="Montserrat-Medium, Montserrat" font-weight="500" letter-spacing="0.03em"><tspan x="-60.975" y="0">ver</tspan></text>
  <text id="time_s" data-name="time&apos;s" transform="translate(0 62)" fill="#8b8b8b" font-size="30" font-family="Montserrat-Regular, Montserrat" letter-spacing="0.1em"><tspan x="0" y="0">Time&apos;s</tspan></text>
</svg>
